<svg width="14" height="16" viewBox="0 0 14 16" fill="none" xmlns="http://www.w3.org/2000/svg">
<path fill-rule="evenodd" clip-rule="evenodd" d="M13.0582 2.14219C13.0582 2.15 13.0643 2.15655 13.0717 2.15655L13.0707 2.15497H13.971C13.9872 2.15497 14 2.16902 14 2.18588V2.3762C14 2.39337 13.9868 2.40709 13.971 2.40709H13.071C13.0638 2.40709 13.0575 2.41364 13.0575 2.42145V2.84392C13.0575 2.87919 13.032 2.90601 12.9993 2.90601L10.6653 2.90289C10.6533 2.90289 10.6429 2.91195 10.6403 2.92442L10.5411 3.40775C10.5363 3.42677 10.5288 3.44518 10.5186 3.46204L10.4364 3.59777C10.43 3.60837 10.4279 3.62116 10.4307 3.63334L10.6296 4.52914C10.6342 4.55287 10.6204 4.57625 10.5982 4.58156L9.75445 4.78157C9.73108 4.78718 9.71051 4.77315 9.70525 4.74818L9.62528 4.35129C9.62347 4.34162 9.61097 4.34038 9.60718 4.34942L9.32056 5.06301C9.30065 5.10357 9.27054 5.13759 9.23385 5.16161C9.09498 5.25209 8.8281 5.35412 8.66619 5.35537C8.62539 5.35537 8.58524 5.34289 8.54986 5.32168L7.96559 4.97065C7.9493 4.96098 7.92874 4.96691 7.91969 4.98439L7.69987 5.23743C7.69033 5.25553 7.69048 5.27799 7.70052 5.29579L7.8473 5.48954C7.85815 5.50857 7.85864 5.53261 7.84877 5.55226L7.13155 6.98849C7.1225 7.0069 7.10489 7.01906 7.08531 7.02094L6.87816 7.03935C6.86236 7.04059 6.85183 7.05682 6.85595 7.07305L6.90136 7.81783C6.90712 7.84092 6.91765 7.86214 6.93229 7.88024C6.9471 7.89833 6.96487 7.9155 6.98314 7.92892C7.00848 7.94763 7.02872 7.97323 7.04435 8.00194C7.18075 8.25591 7.75613 9.32833 7.84844 9.50306C7.86571 9.5358 7.89122 9.5827 7.92166 9.63895C8.07567 9.92319 8.359 10.4461 8.38187 10.5855C8.41922 10.8114 8.43765 11.0251 8.38187 11.2151L7.1916 14.2071C7.18486 14.2252 7.17466 14.2417 7.1615 14.2551L6.77499 14.6611C6.75886 14.6779 6.75459 14.7041 6.76413 14.726L6.96257 15.0386C6.99186 15.0811 7.03316 15.1123 7.08054 15.1278L7.81949 15.3653C7.82442 15.3672 7.82919 15.3697 7.83347 15.3725C7.83462 15.3731 7.84351 15.3781 7.85255 15.3915C7.85404 15.3934 7.85486 15.3953 7.85601 15.3971C7.85667 15.3981 7.85716 15.3991 7.85766 15.4001C7.85897 15.4023 7.86013 15.4045 7.86111 15.4071L7.8616 15.408V15.4084C7.86638 15.4199 7.87049 15.4343 7.87246 15.4533C7.87312 15.4577 7.87361 15.4623 7.87361 15.467V15.4692V15.4848C7.87329 15.487 7.87328 15.4895 7.87328 15.4917L7.87246 15.5026C7.86308 15.5978 7.8004 15.6717 7.74627 15.7319C7.71747 15.7637 7.67305 15.7925 7.60443 15.8184C7.59999 15.8202 7.59571 15.8218 7.59127 15.8233C7.49254 15.8589 7.34743 15.8898 7.13534 15.9185C7.12168 15.9204 7.10061 15.9226 7.08827 15.9232C7.02312 15.926 6.91305 15.9276 6.91107 15.9276H6.90975L5.31865 15.9182C5.29792 15.9182 5.2813 15.8995 5.28246 15.8773L5.37607 15.1547C5.37986 15.0807 5.40438 15.0273 5.42774 14.9767C5.45078 14.9266 5.4725 14.8792 5.47168 14.8171L5.72917 13.8283C5.73378 13.794 5.74151 13.7596 5.75138 13.7266L6.03587 12.3028L6.67989 11.0972C6.69354 11.0713 6.68565 11.0382 6.66163 11.0226C6.63678 11.0065 6.60173 10.9878 6.56389 10.9678C6.48985 10.9284 6.40576 10.8838 6.37039 10.8429C6.17738 10.6182 5.73526 9.93646 5.64625 9.79792C5.60429 9.73282 5.54489 9.63221 5.4827 9.52655C5.38529 9.36129 5.28065 9.18369 5.22323 9.11023C5.19542 9.07465 5.15033 9.06062 5.10903 9.07497L5.04108 9.09837C5.01344 9.10804 4.99089 9.12926 4.97839 9.15702L3.90379 11.6832C3.86364 11.7724 3.78369 11.9072 3.72478 11.9836L1.46979 14.8049L1.48657 14.935L1.4224 15.7993C1.42009 15.9066 1.33881 16.0068 1.26559 15.9996L0.0828987 15.9978L0.0246519 15.8739L0.00523903 15.8268C-0.0023297 15.8084 -0.00167263 15.7875 0.00704786 15.7697L0.396666 15.0439C0.421018 14.994 0.442087 14.7463 0.440935 14.6901L0.358334 14.5331C0.356853 14.4698 0.379397 14.374 0.407533 14.3185L1.57065 11.7028C1.67546 11.4953 1.88985 11.198 2.04995 11.0351L2.3991 10.7508C2.40881 10.7405 2.41605 10.728 2.41983 10.714L2.51888 10.1087C2.52332 10.0819 2.52646 10.055 2.52892 10.0282L2.65429 8.50273C2.6589 8.44686 2.70284 8.40351 2.75565 8.40351L2.96543 8.40226C2.98287 8.40226 2.99851 8.39009 3.00344 8.37199L3.37728 7.35138C3.37876 7.34607 3.38056 7.34076 3.38254 7.33577C3.38632 7.32671 3.39274 7.3186 3.39981 7.31205L3.67147 7.05713C3.67838 7.04434 3.68348 7.03029 3.68611 7.01594L3.8908 6.37162C3.89409 6.35727 3.88932 6.34198 3.87862 6.3323L3.48653 6.07115C3.47189 6.05306 3.46629 6.02059 3.47566 5.99908L4.0374 4.30387C4.04678 4.28234 4.07047 4.2633 4.09268 4.2633L4.45384 4.26205C4.47178 4.263 4.48856 4.25238 4.49662 4.23553C4.49662 4.23553 4.56063 4.08795 4.94926 3.20244C5.34514 2.3007 5.88204 1.98711 6.12325 1.97683C6.25175 1.9712 6.51255 1.96402 6.51255 1.96402C6.52802 1.96402 6.54151 1.95311 6.54562 1.9372L6.66804 1.72096L6.4464 1.61893C6.42994 1.6052 6.41992 1.5843 6.41992 1.56183L6.38799 0.907527C6.38799 0.895356 6.41152 0.762437 6.41678 0.751516L6.47717 0.609859C6.52636 0.508765 6.58939 0.416093 6.66573 0.33684C6.83767 0.158365 7.16002 -0.0653533 7.65182 0.017956C8.66291 0.189568 8.87269 0.957136 8.89836 1.07196C8.9005 1.08101 8.90658 1.08819 8.91481 1.09162L9.05664 1.14809C9.07046 1.1534 9.07836 1.169 9.07507 1.18429L8.92238 1.84359C8.9181 1.8623 8.90164 1.8748 8.88354 1.87324L8.67409 1.852C8.65549 1.84827 8.63855 1.86386 8.63888 1.88384L8.6471 2.00177C8.64743 2.01894 8.66059 2.03268 8.67672 2.03268H12.7729C12.7778 2.03268 12.7823 2.03017 12.7851 2.02581C12.8102 1.987 12.8428 1.93636 12.8706 1.89323C12.9004 1.84722 12.9244 1.80975 12.928 1.80426C12.9419 1.78305 12.9629 1.76933 12.9866 1.76933C13.0278 1.76933 13.0605 1.80957 13.0605 1.8595L13.0602 1.89412C13.0597 1.96258 13.0587 2.09802 13.0582 2.14219Z" fill="#AAB5C6"/>
</svg>
