<svg version="1.1" id="Слой_1" xmlns="http://www.w3.org/2000/svg" x="0" y="0" viewBox="0 0 1499 1500" xml:space="preserve"><style>.st0{fill:#fff}.st1{fill:#6080ff}</style><path class="st0" d="M721.7 1088.7v139.2l-121.1-70v-.1L481 1088.5l-59.8-34.7-62.1-35.9-35.6-20.7V503l98.1-56.8 299.8-173.7v140.4L543.3 516.6l-99.1 57.7v353.6l36.8 21.4z"/><path class="st0" d="M1361.4 398.7l-.4 703.5-602.3 347.7-7 4-151-87.1-.1-139.6 148.5 85.7 2.8 1.6 59.8-34.6 9.2-5.3 419.7-242.5.3-563.4-120.3-69.5-157.7-91.1-.2-129.8v-9.6l214.1 123.5z"/><path class="st1" d="M903 133.9v139.7l-54.3-31.3-97-55.9-488.2 282.7-.1 563 95.7 55.5 121.8 70.6 60 34.7.2 140.3L359 1227.8 141.4 1102l.5-703.2L751.6 46.7z"/><path class="st1" d="M903 483.6v206.3l277.1.6v307.4l-398.3 229.9.3-139.6 277.4-160.4-.5-117.1-277.2.2V272.2l398.3 231.3v140.8z"/></svg>