<svg width="18" height="18" viewBox="0 0 18 18" fill="none" xmlns="http://www.w3.org/2000/svg">
<path fill-rule="evenodd" clip-rule="evenodd" d="M11.2054 0.913509C9.98739 -0.304503 8.0126 -0.304503 6.79459 0.913509L0.913509 6.79459C-0.304503 8.0126 -0.304503 9.98739 0.913509 11.2054L2.01621 12.3081C3.03122 11.2931 4.67688 11.2931 5.69189 12.3081C6.7069 13.3231 6.7069 14.9688 5.69189 15.9838L6.79459 17.0865C8.0126 18.3045 9.98739 18.3045 11.2054 17.0865L17.0865 11.2054C18.3045 9.98739 18.3045 8.01261 17.0865 6.79459L15.9838 5.69189C14.9688 6.7069 13.3231 6.7069 12.3081 5.69189C11.2931 4.67688 11.2931 3.03122 12.3081 2.01621L11.2054 0.913509ZM7.16216 10.8378C6.75616 10.4318 6.75616 9.77357 7.16216 9.36757L9.36757 7.16216C9.77357 6.75616 10.4318 6.75616 10.8378 7.16216C11.2438 7.56816 11.2438 8.22643 10.8378 8.63243L8.63243 10.8378C8.22643 11.2438 7.56816 11.2438 7.16216 10.8378Z" fill="#FC9537"/>
</svg>
