<svg width="24" height="24" viewBox="0 0 24 24" fill="none" xmlns="http://www.w3.org/2000/svg">
<g clip-path="url(#clip0_8955_55435)">
<path d="M10.409 2.65165C11.2877 1.77297 12.7123 1.77297 13.591 2.65165L21.3483 10.409C22.227 11.2877 22.227 12.7123 21.3483 13.591L13.591 21.3483C12.7123 22.227 11.2877 22.227 10.409 21.3483L2.65165 13.591C1.77297 12.7123 1.77297 11.2877 2.65165 10.409L10.409 2.65165Z" stroke="#FC9537" stroke-width="1.5"/>
<path d="M11.8232 6.73744C11.9209 6.63981 12.0791 6.63981 12.1768 6.73744L17.2626 11.8232C17.3602 11.9209 17.3602 12.0791 17.2626 12.1768L12.1768 17.2626C12.0791 17.3602 11.9209 17.3602 11.8232 17.2626L6.73744 12.1768C6.63981 12.0791 6.63981 11.9209 6.73744 11.8232L11.8232 6.73744Z" stroke="#FC9537" stroke-width="1.5"/>
</g>
<defs>
<clipPath id="clip0_8955_55435">
<rect width="24" height="24" fill="white"/>
</clipPath>
</defs>
</svg>
