<svg width="18" height="18" viewBox="0 0 18 18" fill="none" xmlns="http://www.w3.org/2000/svg">
<path d="M8.26486 5.32432C8.67087 4.91832 9.32913 4.91832 9.73513 5.32432L12.6757 8.26486C13.0817 8.67087 13.0817 9.32913 12.6757 9.73514L9.73513 12.6757C9.32913 13.0817 8.67087 13.0817 8.26486 12.6757L5.32432 9.73514C4.91832 9.32913 4.91832 8.67087 5.32432 8.26486L8.26486 5.32432Z" fill="#FC9537"/>
<path fill-rule="evenodd" clip-rule="evenodd" d="M11.2054 0.913509C9.98739 -0.304503 8.0126 -0.304503 6.79459 0.913509L0.913509 6.79459C-0.304503 8.0126 -0.304503 9.98739 0.913509 11.2054L6.79459 17.0865C8.0126 18.3045 9.98739 18.3045 11.2054 17.0865L17.0865 11.2054C18.3045 9.98739 18.3045 8.01261 17.0865 6.79459L11.2054 0.913509ZM14.1459 6.79459L11.2054 3.85405C9.98739 2.63604 8.0126 2.63604 6.79459 3.85405L3.85405 6.79459C2.63604 8.01261 2.63604 9.98739 3.85405 11.2054L6.79459 14.1459C8.0126 15.364 9.98739 15.364 11.2054 14.1459L14.1459 11.2054C15.364 9.98739 15.364 8.0126 14.1459 6.79459Z" fill="#FC9537"/>
</svg>
