<svg width="16" height="16" viewBox="0 0 16 16" fill="none" xmlns="http://www.w3.org/2000/svg">
<path d="M12.5721 14H13.8182C15.0232 14 16 13.0519 16 11.8824C16 9.93316 14.3719 8.35299 12.3636 8.35299H10.9091C10.8481 8.35299 10.7875 8.35444 10.7273 8.35732C11.9586 9.48363 12.7273 11.0812 12.7273 12.853C12.7273 13.2498 12.6733 13.6343 12.5721 14Z" fill="white" fill-opacity="0.4"/>
<path d="M9.72925 6.107C10.1956 6.61865 10.8772 6.94124 11.6364 6.94124C13.0422 6.94124 14.1818 5.83512 14.1818 4.47065C14.1818 3.10618 13.0422 2.00006 11.6364 2.00006C11.1444 2.00006 10.685 2.13552 10.2957 2.3701C10.3994 2.75937 10.4545 3.16758 10.4545 3.58829C10.4545 4.51057 10.1895 5.37276 9.72925 6.107Z" fill="white" fill-opacity="0.4"/>
<path d="M12.5721 14H13.8182C15.0232 14 16 13.0519 16 11.8824C16 9.93316 14.3719 8.35299 12.3636 8.35299H10.9091C10.8481 8.35299 10.7875 8.35444 10.7273 8.35732C11.9586 9.48363 12.7273 11.0812 12.7273 12.853C12.7273 13.2498 12.6733 13.6343 12.5721 14Z" fill="white" fill-opacity="0.4"/>
<path d="M9.72925 6.107C10.1956 6.61865 10.8772 6.94124 11.6364 6.94124C13.0422 6.94124 14.1818 5.83512 14.1818 4.47065C14.1818 3.10618 13.0422 2.00006 11.6364 2.00006C11.1444 2.00006 10.685 2.13552 10.2957 2.3701C10.3994 2.75937 10.4545 3.16758 10.4545 3.58829C10.4545 4.51057 10.1895 5.37276 9.72925 6.107Z" fill="white" fill-opacity="0.4"/>
<path fill-rule="evenodd" clip-rule="evenodd" d="M5.45454 6.67647C7.21181 6.67647 8.63636 5.29382 8.63636 3.58824C8.63636 1.88265 7.21181 0.5 5.45454 0.5C3.69727 0.5 2.27273 1.88265 2.27273 3.58824C2.27273 5.29382 3.69727 6.67647 5.45454 6.67647ZM4.54545 8.44118C2.03507 8.44118 0 10.4164 0 12.8529C0 14.3149 1.22104 15.5 2.72727 15.5H8.18182C9.68805 15.5 10.9091 14.3149 10.9091 12.8529C10.9091 10.4164 8.87402 8.44118 6.36363 8.44118H4.54545Z" fill="white"/>
</svg>
