<svg width="15" height="17" viewBox="0 0 15 17" fill="none" xmlns="http://www.w3.org/2000/svg">
<path d="M2.45466 16.0469C2.20283 16.0465 1.95546 15.9805 1.73688 15.8554C1.2447 15.5765 0.938721 15.0351 0.938721 14.4473V2.55281C0.938721 1.96341 1.2447 1.42365 1.73688 1.14474C1.96067 1.01613 2.21489 0.949992 2.47297 0.953239C2.73106 0.956486 2.98354 1.029 3.20401 1.1632L13.3697 7.24828C13.5816 7.38112 13.7563 7.5656 13.8773 7.78441C13.9984 8.00321 14.0619 8.24918 14.0619 8.49925C14.0619 8.74932 13.9984 8.99529 13.8773 9.2141C13.7563 9.43291 13.5816 9.61738 13.3697 9.75023L3.20237 15.8369C2.97674 15.9734 2.71831 16.0459 2.45466 16.0469Z" fill="#6080FF"/>
</svg>
