<svg xmlns="http://www.w3.org/2000/svg" xmlns:xlink="http://www.w3.org/1999/xlink" viewBox="0 0 512 360"><defs><style>.cls-1{fill:url(#Безымянный_градиент_7);}</style><linearGradient id="Безымянный_градиент_7" y1="180" x2="512" y2="180" gradientUnits="userSpaceOnUse"><stop offset="0" stop-color="#eda531"/><stop offset="0.66" stop-color="#f08b33"/><stop offset="1" stop-color="#f8c333"/></linearGradient></defs><title>Ресурс 1</title><g id="Слой_2" data-name="Слой 2"><g id="Capa_1" data-name="Capa 1"><path class="cls-1" d="M505,74.79A20,20,0,0,0,483.25,72L373.8,125.3,271.11,6.9a20,20,0,0,0-30.22,0L138.2,125.3,28.76,72A20,20,0,0,0,.87,95.82l76,250A20,20,0,0,0,96,360H416a20,20,0,0,0,19.13-14.18l76-250A20,20,0,0,0,505,74.79Z"/></g></g></svg>