<svg width="25" height="25" viewBox="0 0 25 25" fill="none" xmlns="http://www.w3.org/2000/svg">
<path d="M21.1924 14.8652C22.2651 14.8652 23.1348 15.7349 23.1348 16.8076L23.1348 22.1924C23.1348 23.2651 22.2651 24.1348 21.1924 24.1348H15.8076C14.7349 24.1348 13.8652 23.2651 13.8652 22.1924L13.8652 16.8076C13.8652 15.7349 14.7349 14.8652 15.8076 14.8652H21.1924Z" stroke="white" stroke-width="1.5"/>
<path d="M8.19239 14.8652C9.26514 14.8652 10.1348 15.7349 10.1348 16.8076L10.1348 22.1924C10.1348 23.2651 9.26514 24.1348 8.19239 24.1348H2.80761C1.73486 24.1348 0.865223 23.2651 0.865223 22.1924L0.865224 16.8076C0.865223 15.7349 1.73486 14.8652 2.80761 14.8652H8.19239Z" stroke="white" stroke-width="1.5"/>
<path d="M17.1265 1.31891C17.8851 0.560363 19.1149 0.560363 19.8735 1.31891L23.6811 5.12652C24.4396 5.88507 24.4396 7.11493 23.6811 7.87348L19.8735 11.6811C19.1149 12.4396 17.8851 12.4396 17.1265 11.6811L13.3189 7.87348C12.5604 7.11493 12.5604 5.88507 13.3189 5.12652L17.1265 1.31891Z" stroke="white" stroke-width="1.5"/>
<path d="M8.19239 1.86523C9.26514 1.86523 10.1348 2.73487 10.1348 3.80762L10.1348 9.19239C10.1348 10.2651 9.26514 11.1348 8.19239 11.1348H2.80761C1.73486 11.1348 0.865223 10.2651 0.865223 9.19239L0.865224 3.80762C0.865223 2.73487 1.73486 1.86523 2.80761 1.86523H8.19239Z" stroke="white" stroke-width="1.5"/>
</svg>
